<svg width="38" height="39" viewBox="0 0 38 39" fill="none" xmlns="http://www.w3.org/2000/svg">
<path d="M20.7812 0.0444336C30.2887 0.0444336 38 7.75576 38 17.2632C38 18.2503 37.2059 19.0444 36.2188 19.0444C35.2316 19.0444 34.4375 18.2503 34.4375 17.2632C34.4375 9.72256 28.3219 3.60693 20.7812 3.60693C19.7941 3.60693 19 2.81279 19 1.82568C19 0.838574 19.7941 0.0444336 20.7812 0.0444336ZM21.375 14.2944C22.0049 14.2944 22.609 14.5447 23.0544 14.9901C23.4998 15.4355 23.75 16.0395 23.75 16.6694C23.75 17.2993 23.4998 17.9034 23.0544 18.3488C22.609 18.7942 22.0049 19.0444 21.375 19.0444C20.7451 19.0444 20.141 18.7942 19.6956 18.3488C19.2502 17.9034 19 17.2993 19 16.6694C19 16.0395 19.2502 15.4355 19.6956 14.9901C20.141 14.5447 20.7451 14.2944 21.375 14.2944ZM19 8.95068C19 7.96357 19.7941 7.16943 20.7812 7.16943C26.3551 7.16943 30.875 11.6894 30.875 17.2632C30.875 18.2503 30.0809 19.0444 29.0938 19.0444C28.1066 19.0444 27.3125 18.2503 27.3125 17.2632C27.3125 13.6562 24.3883 10.7319 20.7812 10.7319C19.7941 10.7319 19 9.93779 19 8.95068ZM24.418 21.323C25.2566 20.2987 26.6668 19.9499 27.884 20.4769L36.1965 24.0394C37.5027 24.596 38.2301 26.0062 37.9332 27.3866L36.152 35.6991C35.8551 37.0647 34.6453 38.0444 33.25 38.0444C32.7973 38.0444 32.3445 38.037 31.8992 38.0147H31.8918C31.1496 37.9851 30.4223 37.9331 29.6949 37.8515C13.0031 36.0851 0 21.9538 0 4.79443C0 3.3917 0.979688 2.18193 2.34531 1.89248L10.6578 0.11123C12.0457 -0.185645 13.4484 0.541699 14.0051 1.84795L17.5676 10.1604C18.0871 11.3776 17.7457 12.7878 16.7215 13.6265L13.7082 16.0905C15.6898 19.5046 18.5398 22.3546 21.9539 24.3362L24.418 21.323ZM34.3484 27.1194L26.8969 23.928L24.7148 26.5851C23.609 27.9358 21.6867 28.2847 20.1727 27.4089C16.2168 25.1155 12.9215 21.8202 10.6281 17.8644C9.75234 16.3503 10.1012 14.428 11.452 13.3222L14.1164 11.1401L10.925 3.68857L3.56992 5.27686C3.82227 21.2858 16.7586 34.2222 32.7676 34.4819L34.3484 27.1194Z" fill="#9D59D2"/>
</svg>
