<?xml version="1.0" standalone="no"?>
<!DOCTYPE svg PUBLIC "-//W3C//DTD SVG 20010904//EN"
 "http://www.w3.org/TR/2001/REC-SVG-20010904/DTD/svg10.dtd">
<svg version="1.0" xmlns="http://www.w3.org/2000/svg"
 width="129.000000pt" height="129.000000pt" viewBox="0 0 129.000000 129.000000"
 preserveAspectRatio="xMidYMid meet">
<metadata>
Created by potrace 1.14, written by Peter Selinger 2001-2017
</metadata>
<g transform="translate(0.000000,129.000000) scale(0.100000,-0.100000)"
fill="#000000" stroke="none">
<path d="M319 1200 c-14 -12 -132 -216 -263 -453 -14 -26 -33 -58 -41 -70 -16
-25 -16 -26 45 -132 l28 -50 -20 -25 -20 -25 37 -5 c29 -4 42 -12 54 -35 9
-16 46 -81 81 -143 36 -62 70 -122 76 -134 7 -11 17 -25 23 -31 15 -15 629
-17 641 -2 5 6 78 133 164 283 l155 273 -35 59 c-19 32 -34 64 -34 70 0 6 12
27 26 46 l26 34 -43 1 c-24 1 -47 1 -51 0 -7 -1 -58 72 -58 83 0 2 -28 52 -62
112 -35 60 -69 121 -76 134 l-13 25 -311 0 c-263 0 -315 -2 -329 -15z"/>
</g>
</svg>
