<svg width="179" height="179" viewBox="0 0 179 179" fill="none" xmlns="http://www.w3.org/2000/svg">
<g clip-path="url(#clip0_29_3021)">
<mask id="mask0_29_3021" style="mask-type:luminance" maskUnits="userSpaceOnUse" x="26" y="27" width="127" height="126">
<path d="M26.9639 27.4147H152.02V152.471H26.9639V27.4147Z" fill="white"/>
</mask>
<g mask="url(#mask0_29_3021)">
<path d="M67.0848 35.9907C73.6469 32.0957 81.3073 29.8566 89.4918 29.8566C113.773 29.8566 133.457 49.5405 133.457 73.8216C133.457 88.4388 126.322 101.388 115.346 109.381C110.797 112.694 109.076 115.994 109.033 120.54M69.9511 120.54C69.9076 115.994 68.1871 112.694 63.638 109.381C52.6616 101.388 45.5269 88.4388 45.5269 73.8216C45.5269 65.6366 47.7659 57.9749 51.6617 51.4134" stroke="white" stroke-width="4.885" stroke-miterlimit="22.926" stroke-linecap="round" stroke-linejoin="round"/>
<path d="M78.4999 130.487H69.9521C67.2651 130.487 65.0669 128.289 65.0669 125.602C65.0669 122.916 67.2651 120.717 69.9521 120.717H109.032C111.719 120.717 113.917 122.916 113.917 125.602C113.917 128.289 111.719 130.487 109.032 130.487H100.482" stroke="white" stroke-width="4.885" stroke-miterlimit="22.926" stroke-linecap="round" stroke-linejoin="round"/>
<path d="M109.032 130.488C111.719 130.488 113.917 132.686 113.917 135.373C113.917 138.06 111.719 140.258 109.032 140.258H69.9519C67.2649 140.258 65.0669 138.06 65.0669 135.373C65.0669 132.686 67.2651 130.488 69.9519 130.488" stroke="white" stroke-width="4.885" stroke-miterlimit="22.926" stroke-linecap="round" stroke-linejoin="round"/>
<path d="M109.032 140.867V145.141C109.032 147.828 106.833 150.026 104.147 150.026H74.8367C72.1504 150.026 69.9517 147.828 69.9517 145.141V140.867" stroke="white" stroke-width="4.885" stroke-miterlimit="22.926" stroke-linecap="round" stroke-linejoin="round"/>
<path d="M94.6088 85.7165C94.6088 88.5422 92.318 90.833 89.4923 90.833C86.6663 90.833 84.3757 88.5422 84.3757 85.7165C84.3757 78.5863 84.8403 78.1318 91.5357 71.5795C92 71.125 92.5029 70.633 93.0466 70.0974C93.5153 69.6358 93.8946 69.0791 94.155 68.4568C94.4029 67.865 94.5399 67.2021 94.5399 66.493C94.5399 65.0986 93.975 63.8363 93.062 62.9233C92.1487 62.0103 90.8867 61.4453 89.4923 61.4453C88.5385 61.4453 87.6545 61.7008 86.9059 62.1458C86.1177 62.6141 85.4704 63.2811 85.0386 64.0737C83.6921 66.546 80.5959 67.4588 78.1234 66.1122C75.6509 64.7654 74.7381 61.6693 76.0849 59.197C77.4058 56.7733 79.3549 54.7507 81.7092 53.3516C83.9964 51.9929 86.6585 51.2122 89.4923 51.2122C93.7112 51.2122 97.5313 52.9227 100.297 55.6884C103.062 58.4535 104.773 62.2738 104.773 66.493C104.773 68.5645 104.351 70.5524 103.589 72.3743C102.799 74.2594 101.641 75.9555 100.202 77.3724C99.6579 77.908 99.1553 78.4002 98.6907 78.8545C94.8736 82.5901 94.6088 82.8492 94.6088 85.7165Z" stroke="white" stroke-width="4.885" stroke-miterlimit="22.926" stroke-linecap="round" stroke-linejoin="round"/>
<path d="M89.492 108.394C92.3102 108.394 94.6086 106.095 94.6086 103.277C94.6086 100.459 92.3102 98.1605 89.492 98.1605C86.6739 98.1605 84.3755 100.459 84.3755 103.277C84.3755 106.095 86.6739 108.394 89.492 108.394Z" stroke="white" stroke-width="4.885" stroke-miterlimit="22.926" stroke-linecap="round" stroke-linejoin="round"/>
<path d="M58.4038 42.7324H58.4061" stroke="white" stroke-width="4.885" stroke-miterlimit="2.613" stroke-linecap="round" stroke-linejoin="round"/>
<path d="M89.4902 130.487H89.4925" stroke="white" stroke-width="4.885" stroke-miterlimit="2.613" stroke-linecap="round" stroke-linejoin="round"/>
</g>
</g>
<circle cx="89.491" cy="89.9412" r="86.6727" stroke="white" stroke-width="4.75765"/>
<defs>
<clipPath id="clip0_29_3021">
<rect width="125.056" height="125.056" fill="white" transform="translate(26.9629 27.4131)"/>
</clipPath>
</defs>
</svg>
