<svg width="74" height="59" viewBox="0 0 74 59" fill="none" xmlns="http://www.w3.org/2000/svg">
<path d="M27.6505 6.3774L26.3138 6.4567C24.0142 6.58131 22.1677 8.42779 22.0431 10.7274L21.9638 12.0641L23.3005 11.9848C25.6001 11.8602 27.4466 10.0137 27.5712 7.71412L27.6505 6.3774ZM5.67393 20.7415C4.38252 17.309 4.5751 13.3442 6.55752 9.91177L8.89111 5.86763C9.60479 4.63287 11.1794 4.21373 12.4028 4.9274C14.204 5.96959 15.6767 7.35162 16.7981 8.94888C17.7044 4.58756 21.4427 1.27974 26.0079 1.0192L30.3806 0.781306C32.0005 0.690681 33.3372 2.0274 33.2466 3.64732L33.0087 8.01998C32.7255 13.095 28.6813 17.1391 23.6063 17.4223L20.8196 17.5809C18.4181 21.0926 17.104 25.284 17.104 29.6114C17.104 40.6223 26.0306 49.5489 37.0415 49.5489H38.3556C43.2833 49.5489 48.1317 50.693 52.5384 52.902L53.6599 53.4684C55.0079 54.1368 55.5517 55.768 54.872 57.1161C54.1923 58.4641 52.5724 59.0079 51.2243 58.3282L50.1028 57.7618C46.4552 55.9379 42.4337 54.9864 38.3556 54.9864H37.0415H35.7274C31.6493 54.9864 27.6278 55.9379 23.9688 57.7618L22.8474 58.3282C21.4993 58.9965 19.8681 58.4528 19.1997 57.1161C18.5313 55.7794 19.0751 54.1368 20.4118 53.4684L21.5333 52.902C22.4735 52.4376 23.4364 52.0071 24.4106 51.6333C23.7876 51.2821 23.1872 50.8969 22.6095 50.4891L22.0657 50.8063L22.0317 50.829C21.5106 51.1348 20.9669 51.3954 20.4231 51.6106C14.6571 53.9215 7.92822 51.7012 4.73369 46.1731L2.4001 42.1176C1.68643 40.8829 2.10557 39.3083 3.34033 38.6059C4.02002 38.2094 4.72236 37.8809 5.43604 37.6204C2.604 35.2868 0.791504 31.7524 0.791504 27.7989V23.1317C0.791504 21.7044 1.94697 20.5489 3.36299 20.5489C4.15596 20.5489 4.92627 20.6169 5.67393 20.7415ZM53.2521 17.5696L50.4653 17.411C45.3903 17.1278 41.3462 13.0836 41.063 8.00865L40.8251 3.63599C40.7345 2.01607 42.0712 0.679353 43.6911 0.769978L48.0638 1.00787C52.629 1.25709 56.3673 4.57623 57.2735 8.93756C58.395 7.34029 59.8677 5.95826 61.6689 4.91607C62.9036 4.2024 64.4782 4.62154 65.1806 5.85631L67.5142 9.90045C69.4966 13.3329 69.6892 17.2977 68.3978 20.7301C69.1454 20.6055 69.9157 20.5376 70.7087 20.5376C72.136 20.5376 73.2802 21.693 73.2802 23.109V27.7762C73.2802 31.7297 71.4677 35.2641 68.6243 37.5977C69.338 37.8583 70.0403 38.1868 70.72 38.5833C71.9548 39.2969 72.3739 40.8715 71.6603 42.095L69.3267 46.1391C66.8798 50.3758 62.3599 52.6641 57.7946 52.4715C57.1942 51.5313 56.3446 50.727 55.2685 50.1946L54.147 49.6282C53.8298 49.4696 53.5013 49.311 53.1728 49.1637C51.9946 48.62 50.7938 48.1442 49.5704 47.7364C48.6755 47.4305 47.7692 47.17 46.8517 46.9434C52.9009 43.5336 56.979 37.054 56.979 29.6114C56.979 25.284 55.6649 21.0926 53.2634 17.5696H53.2521ZM47.7692 6.4567L46.4325 6.3774L46.5118 7.71412C46.6364 10.0137 48.4829 11.8602 50.7825 11.9848L52.1192 12.0641L52.0399 10.7274C51.9153 8.42779 50.0689 6.58131 47.7692 6.4567ZM11.6665 34.811V34.2786C11.6665 30.6989 9.40088 27.6516 6.229 26.4848V27.7989C6.229 31.1747 8.53994 34.018 11.6665 34.8223V34.811ZM62.4165 34.2786V34.811C65.5431 34.0067 67.854 31.1633 67.854 27.7876V26.4848C64.6821 27.6516 62.4165 30.6989 62.4165 34.2786ZM17.6704 46.8075L17.3985 46.343C15.6087 43.2505 12.131 41.7438 8.80049 42.3102L9.44619 43.4317C11.1341 46.3544 14.5552 47.6571 17.6591 46.7962L17.6704 46.8075ZM12.7313 20.968C14.5212 17.8754 14.0794 14.1032 11.9157 11.509L11.27 12.6305C9.58213 15.5532 10.1599 19.1669 12.4708 21.4325L12.7427 20.968H12.7313ZM61.6235 21.4325C63.9231 19.1669 64.5122 15.5645 62.8243 12.6305L62.1786 11.509C60.0149 14.1032 59.5845 17.8754 61.363 20.968L61.6349 21.4325H61.6235ZM56.4126 46.8075C59.5165 47.6684 62.9376 46.3657 64.6255 43.443L65.2712 42.3215C61.9407 41.7438 58.463 43.2504 56.6731 46.3544L56.4013 46.8188L56.4126 46.8075Z" fill="#9D59D2"/>
</svg>
