<svg width="59" height="59" viewBox="0 0 59 59" fill="none" xmlns="http://www.w3.org/2000/svg">
<path d="M47.8682 11.4863C39.8592 11.4863 33.3682 17.9773 33.3682 25.9863C33.3682 27.2324 33.5268 28.4559 33.8213 29.6113H27.9307V13.2988C27.9307 12.302 27.115 11.4863 26.1182 11.4863C25.1213 11.4863 24.3057 12.302 24.3057 13.2988V28.8637L12.8982 17.4562C12.1959 16.7539 11.0404 16.7539 10.3381 17.4562C9.63574 18.1586 9.63574 19.3141 10.3381 20.0164L19.933 29.6113H11.6182C5.61426 29.6113 0.743164 24.7402 0.743164 18.7363C0.743164 12.7324 5.61426 7.86133 11.6182 7.86133C12.6037 7.86133 13.5666 7.99727 14.4842 8.24648C16.4326 3.74922 20.9072 0.611328 26.1182 0.611328C31.3291 0.611328 35.8037 3.74922 37.7522 8.24648C38.6584 7.99727 39.6213 7.86133 40.6182 7.86133C43.8467 7.86133 46.758 9.27734 48.7518 11.509C48.4572 11.4863 48.1627 11.4863 47.8682 11.4863ZM14.099 48.45C15.5604 49.0957 16.6705 50.3418 17.135 51.8824C17.3615 52.6301 18.0639 53.1738 18.8682 53.1738H40.6182C41.4338 53.1738 42.1361 52.6301 42.3514 51.8824C42.8045 50.3531 43.9146 49.0957 45.3873 48.45C49.3748 46.7055 52.3201 43.0578 53.1018 38.6738H6.38457C7.16621 43.0578 10.1115 46.7055 14.099 48.45ZM0.743164 36.3402C0.743164 34.6297 2.13652 33.2363 3.84707 33.2363H55.6393C57.3498 33.2363 58.7432 34.6297 58.7432 36.3402C58.7432 43.9754 54.1439 50.5457 47.5736 53.423C46.6787 56.425 43.9033 58.6113 40.6182 58.6113H18.8682C15.583 58.6113 12.8076 56.425 11.9127 53.4344C5.34238 50.5457 0.743164 43.9867 0.743164 36.3402ZM53.3057 25.9863C53.3057 22.9844 50.8701 20.5488 47.8682 20.5488C44.8662 20.5488 42.4307 22.9844 42.4307 25.9863C42.4307 27.3797 42.9518 28.6484 43.8127 29.6113H37.6162C37.2197 28.4785 36.9932 27.2551 36.9932 25.9863C36.9932 19.9824 41.8643 15.1113 47.8682 15.1113C53.8721 15.1113 58.7432 19.9824 58.7432 25.9863C58.7432 27.2551 58.5279 28.4785 58.1201 29.6113H51.9236C52.7846 28.6484 53.3057 27.3797 53.3057 25.9863Z" fill="#9D59D2"/>
</svg>
