<svg width="49" height="48" viewBox="0 0 49 48" fill="none" xmlns="http://www.w3.org/2000/svg">
<circle cx="24.0605" cy="23.9531" r="23.9531" fill="white" fill-opacity="0.26"/>
<path d="M31.2078 10.3574H17.3799C13.508 10.3574 10.4658 13.3996 10.4658 17.2715V31.0994C10.4658 34.9714 13.508 38.0135 17.3799 38.0135H31.2078C35.0798 38.0135 38.1219 34.9714 38.1219 31.0994V17.2715C38.1219 13.3996 35.0798 10.3574 31.2078 10.3574ZM35.3564 31.0994C35.3564 33.4503 33.5587 35.248 31.2078 35.248H17.3799C15.0291 35.248 13.2314 33.4503 13.2314 31.0994V17.2715C13.2314 14.9207 15.0291 13.123 17.3799 13.123H31.2078C33.5587 13.123 35.3564 14.9207 35.3564 17.2715V31.0994Z" fill="#434344"/>
<path d="M24.2944 17.2725C20.4226 17.2725 17.3804 20.3146 17.3804 24.1865C17.3804 28.0584 20.4226 31.1005 24.2944 31.1005C28.1663 31.1005 31.2085 28.0584 31.2085 24.1865C31.2085 20.3146 28.1663 17.2725 24.2944 17.2725ZM24.2944 28.335C21.9436 28.335 20.146 26.5373 20.146 24.1865C20.146 21.8357 21.9436 20.0381 24.2944 20.0381C26.6452 20.0381 28.4429 21.8357 28.4429 24.1865C28.4429 26.5373 26.6452 28.335 24.2944 28.335Z" fill="#434344"/>
<path d="M31.2075 18.6553C31.9711 18.6553 32.5903 18.0362 32.5903 17.2725C32.5903 16.5087 31.9711 15.8896 31.2075 15.8896C30.4438 15.8896 29.8247 16.5087 29.8247 17.2725C29.8247 18.0362 30.4438 18.6553 31.2075 18.6553Z" fill="#434344"/>
</svg>
