<svg width="254" height="40" viewBox="0 0 254 40" fill="none" xmlns="http://www.w3.org/2000/svg">
<g clip-path="url(#clip0_15_2168)">
<path d="M21.92 0.326172L28.2324 12.9984L41.5654 15.4401L32.1296 25.7092L34.056 39.8883L21.92 33.5678L9.77659 39.8883L11.7032 25.7092L2.27454 15.4401L15.6001 12.9984L21.92 0.326172Z" fill="#F4B630"/>
<path d="M73.8455 0.326172L80.1578 12.9984L93.4908 15.4401L84.055 25.7092L85.9814 39.8883L73.8455 33.5678L61.7019 39.8883L63.6285 25.7092L54.1999 15.4401L67.5257 12.9984L73.8455 0.326172Z" fill="#F4B630"/>
<path d="M127.009 0.326172L133.693 12.9984L147.81 15.4401L137.819 25.7092L139.859 39.8883L127.009 33.5678L114.151 39.8883L116.191 25.7092L106.208 15.4401L120.318 12.9984L127.009 0.326172Z" fill="#F4B630"/>
<path d="M180.169 0.326172L186.481 12.9984L199.814 15.4401L190.378 25.7092L192.305 39.8883L180.169 33.5678L168.025 39.8883L169.952 25.7092L160.523 15.4401L173.849 12.9984L180.169 0.326172Z" fill="#F4B630"/>
<path d="M232.094 0.326172L238.406 12.9984L251.74 15.4401L242.304 25.7092L244.23 39.8883L232.094 33.5678L219.95 39.8883L221.877 25.7092L212.448 15.4401L225.774 12.9984L232.094 0.326172Z" fill="#F4B630"/>
</g>
<defs>
<clipPath id="clip0_15_2168">
<rect width="252.209" height="39.5621" fill="white" transform="translate(0.895752 0.325195)"/>
</clipPath>
</defs>
</svg>
