<svg width="49" height="48" viewBox="0 0 49 48" fill="none" xmlns="http://www.w3.org/2000/svg">
<circle cx="24.1677" cy="23.9531" r="23.9531" fill="white" fill-opacity="0.26"/>
<path d="M34.3682 18.985C34.3844 19.2121 34.3844 19.4392 34.3844 19.6662C34.3844 26.5912 29.1136 34.5705 19.4801 34.5705C16.5122 34.5705 13.7552 33.7109 11.436 32.2189C11.8577 32.2675 12.2631 32.2837 12.701 32.2837C15.1499 32.2837 17.4042 31.4567 19.2044 30.0457C16.9015 29.997 14.9715 28.4888 14.3066 26.4128C14.631 26.4615 14.9553 26.4939 15.2959 26.4939C15.7662 26.4939 16.2366 26.429 16.6744 26.3156C14.2742 25.829 12.4739 23.7207 12.4739 21.1745V21.1096C13.1713 21.4988 13.9822 21.7421 14.8417 21.7745C13.4308 20.8338 12.5064 19.2283 12.5064 17.4119C12.5064 16.4388 12.7658 15.5468 13.22 14.7684C15.7986 17.9471 19.6747 20.0229 24.0211 20.25C23.94 19.8608 23.8913 19.4554 23.8913 19.0499C23.8913 16.1631 26.2267 13.8115 29.1297 13.8115C30.638 13.8115 32.0003 14.444 32.9572 15.4658C34.1411 15.2387 35.2763 14.8008 36.2819 14.2008C35.8926 15.4171 35.0655 16.4389 33.9789 17.0875C35.0331 16.9741 36.0548 16.6821 36.9954 16.2767C36.282 17.3146 35.3899 18.239 34.3682 18.985V18.985Z" fill="#434344"/>
</svg>
