<svg width="58" height="43" viewBox="0 0 58 43" fill="none" xmlns="http://www.w3.org/2000/svg">
<path d="M11.6 5.37207C11.6 2.4752 13.8747 0.12207 16.675 0.12207H18.125C20.9253 0.12207 23.2 2.4752 23.2 5.37207V18.8721H34.8V5.37207C34.8 2.4752 37.0747 0.12207 39.875 0.12207H41.325C44.1253 0.12207 46.4 2.4752 46.4 5.37207V6.87207H48.575C51.3753 6.87207 53.65 9.22519 53.65 12.1221V18.8721H55.825C57.0303 18.8721 58 19.8752 58 21.1221C58 22.3689 57.0303 23.3721 55.825 23.3721H53.65V30.1221C53.65 33.0189 51.3753 35.3721 48.575 35.3721H46.4V36.8721C46.4 39.7689 44.1253 42.1221 41.325 42.1221H39.875C37.0747 42.1221 34.8 39.7689 34.8 36.8721V23.3721H23.2V36.8721C23.2 39.7689 20.9253 42.1221 18.125 42.1221H16.675C13.8747 42.1221 11.6 39.7689 11.6 36.8721V35.3721H9.425C6.62469 35.3721 4.35 33.0189 4.35 30.1221V23.3721H2.175C0.969688 23.3721 0 22.3689 0 21.1221C0 19.8752 0.969688 18.8721 2.175 18.8721H4.35V12.1221C4.35 9.22519 6.62469 6.87207 9.425 6.87207H11.6V5.37207ZM15.95 36.8721C15.95 37.2846 16.2763 37.6221 16.675 37.6221H18.125C18.5238 37.6221 18.85 37.2846 18.85 36.8721V5.37207C18.85 4.95957 18.5238 4.62207 18.125 4.62207H16.675C16.2763 4.62207 15.95 4.95957 15.95 5.37207V36.8721ZM11.6 11.3721H9.425C9.02625 11.3721 8.7 11.7096 8.7 12.1221V30.1221C8.7 30.5346 9.02625 30.8721 9.425 30.8721H11.6V11.3721ZM42.05 5.37207C42.05 4.95957 41.7238 4.62207 41.325 4.62207H39.875C39.4762 4.62207 39.15 4.95957 39.15 5.37207V36.8721C39.15 37.2846 39.4762 37.6221 39.875 37.6221H41.325C41.7238 37.6221 42.05 37.2846 42.05 36.8721V5.37207ZM48.575 30.8721C48.9738 30.8721 49.3 30.5346 49.3 30.1221V12.1221C49.3 11.7096 48.9738 11.3721 48.575 11.3721H46.4V30.8721H48.575Z" fill="#9D59D2"/>
</svg>
